# xmcd
#
# Track frame offsets: 
#        150
#        13808
#        29096
#        40324
#        56179
#        72640
#        87673
#        103108
#        118477
#        135703
#        153586
#        166824
#
# Disc length: 2409 seconds
#
# Revision: 0
# Processed by: cddbd v1.5.2PL0 Copyright (c) Steve Scherf et al.
# Submitted via: ExactAudioCopy v0.99pb4
#
DISCID=b909670c
DTITLE=The Civil Wars - Barton Hollow
DYEAR=2011
DGENRE=Alt Country
TTITLE0=20 Years
TTITLE1=I've Got This Friend
TTITLE2=C'est La Mort
TTITLE3=To Whom it May Concern
TTITLE4=Poison and Wine
TTITLE5=My Father's Father
TTITLE6=Barton Hollow
TTITLE7=The Violet Hour
TTITLE8=Girl With the Red Balloon
TTITLE9=Falling
TTITLE10=Forget me Not
TTITLE11=Birds of a Feather
EXTD=
EXTT0=
EXTT1=
EXTT2=
EXTT3=
EXTT4=
EXTT5=
EXTT6=
EXTT7=
EXTT8=
EXTT9=
EXTT10=
EXTT11=
PLAYORDER=
